<mxfile host="app.diagrams.net" modified="2023-10-22T07:55:34.361Z" agent="Mozilla/5.0 (Windows NT 10.0; Win64; x64) AppleWebKit/537.36 (KHTML, like Gecko) Chrome/118.0.0.0 Safari/537.36" version="21.8.0" etag="d4sAF0Xsg32ivWO2yO2F" type="github">
  <diagram name="Page-1" id="U6jwYjRci82XhrsQVZgx">
    <mxGraphModel>
      <root>
        <mxCell id="0" />
        <mxCell id="1" parent="0" />
      </root>
    </mxGraphModel>
  </diagram>
</mxfile>
